<svg width="60" height="60" xmlns="http://www.w3.org/2000/svg" xmlns:xlink="http://www.w3.org/1999/xlink" xml:space="preserve" overflow="hidden"><defs><clipPath id="clip0"><rect x="46" y="512" width="60" height="60"/></clipPath><clipPath id="clip1"><rect x="47" y="512" width="59" height="60"/></clipPath><clipPath id="clip2"><rect x="47" y="512" width="59" height="60"/></clipPath><clipPath id="clip3"><rect x="47" y="512" width="59" height="60"/></clipPath></defs><g clip-path="url(#clip0)" transform="translate(-46 -512)"><g clip-path="url(#clip1)"><g clip-path="url(#clip2)"><g clip-path="url(#clip3)"><path d="M21.449 15.9792 37.4281 15.9792 37.4281 18.4375 21.449 18.4375Z" fill="#0F6B36" fill-rule="nonzero" fill-opacity="1" transform="matrix(1 0 0 1.01695 47 512)"/><path d="M21.449 20.8958 37.4281 20.8958 37.4281 23.3542 21.449 23.3542Z" fill="#0F6B36" fill-rule="nonzero" fill-opacity="1" transform="matrix(1 0 0 1.01695 47 512)"/><path d="M21.449 25.8125 37.4281 25.8125 37.4281 28.2708 21.449 28.2708Z" fill="#0F6B36" fill-rule="nonzero" fill-opacity="1" transform="matrix(1 0 0 1.01695 47 512)"/><path d="M51.0104 51.3792 38.7188 39.7021 51.0104 28.025 51.0104 51.3792ZM11.1854 52.8542 23.3542 41.3615 24.2146 40.5625C27.5333 37.4281 32.7573 37.4281 36.076 40.5625L36.9365 41.3615 49.0438 52.8542 11.1854 52.8542ZM9.21875 27.9635 21.5104 39.6406 9.21875 51.3177 9.21875 27.9635ZM17.8229 12.2917 42.4062 12.2917 42.4062 32.7573 36.875 38.0427C32.8802 34.9698 27.349 34.9698 23.3542 38.0427L17.8229 32.7573 17.8229 12.2917ZM46.0938 13.951 46.0938 8.60417 37.4896 8.60417 30.1146 2.45833 22.7396 8.60417 14.1354 8.60417 14.1354 14.0125 5.53125 22.1865 5.53125 56.5417 54.6979 56.5417 54.6979 22.1865 46.0938 13.951Z" fill="#0F6B36" fill-rule="nonzero" fill-opacity="1" transform="matrix(1 0 0 1.01695 47 512)"/></g></g></g></g></svg>