<svg width="98" height="97" xmlns="http://www.w3.org/2000/svg" xmlns:xlink="http://www.w3.org/1999/xlink" xml:space="preserve" overflow="hidden"><defs><clipPath id="clip0"><rect x="770" y="-12" width="98" height="97"/></clipPath><clipPath id="clip1"><rect x="771" y="-11" width="96" height="96"/></clipPath><clipPath id="clip2"><rect x="771" y="-11" width="96" height="96"/></clipPath><clipPath id="clip3"><rect x="771" y="-11" width="96" height="96"/></clipPath></defs><g clip-path="url(#clip0)" transform="translate(-770 12)"><g clip-path="url(#clip1)"><g clip-path="url(#clip2)"><g clip-path="url(#clip3)"><path d="M831.146 47.939C829.99 46.7618 828.098 46.745 826.921 47.9015 826.908 47.9139 826.895 47.9264 826.883 47.939L821.8 53.234C821.222 53.7845 820.315 53.7845 819.737 53.234L802.682 36.248C802.131 35.6705 802.131 34.7625 802.682 34.185L807.976 28.958C809.153 27.8015 809.17 25.9097 808.013 24.7325 808.001 24.7199 807.989 24.7074 807.976 24.695L798.488 15.273C797.943 14.7172 797.203 14.3963 796.425 14.379 795.627 14.3956 794.865 14.7152 794.294 15.273L788.862 20.706C787.493 21.9719 786.678 23.7263 786.593 25.589 786.497 28.6463 787.036 31.6903 788.175 34.529 789.306 37.0673 790.688 39.4863 792.3 41.75 797.904 50.1944 805.012 57.537 813.27 63.412 814.645 64.4327 816.092 65.3521 817.6 66.163 821.016 67.9595 824.755 69.0582 828.6 69.395 828.82 69.413 829.041 69.421 829.26 69.421 831.671 69.4134 833.97 68.4082 835.613 66.644L840.563 61.693C841.132 61.1292 841.454 60.3622 841.457 59.561 841.479 58.7685 841.182 58.0005 840.632 57.429ZM795.708 16.687C795.904 16.5043 796.157 16.3954 796.425 16.379 796.674 16.3984 796.907 16.51 797.079 16.692L806.561 26.108C806.958 26.4835 806.975 27.1094 806.599 27.5061 806.59 27.5159 806.581 27.5256 806.571 27.535L804.854 29.235 794.01 18.387ZM834.2 65.23 834.174 65.256 834.148 65.283C832.886 66.6424 831.116 67.4167 829.261 67.421 829.094 67.421 828.926 67.415 828.741 67.4 825.17 67.0852 821.698 66.0619 818.527 64.39 817.114 63.6294 815.758 62.7679 814.469 61.812L814.447 61.796 814.425 61.78C806.353 56.0421 799.408 48.8639 793.941 40.606 792.418 38.4703 791.112 36.1884 790.041 33.794 789.02 31.2283 788.528 28.4827 788.594 25.722L788.594 25.692 788.594 25.663C788.662 24.323 789.254 23.0634 790.242 22.156L790.261 22.138 790.279 22.12 792.6 19.8 803.431 30.635 801.267 32.771C799.937 34.1312 799.937 36.3048 801.267 37.665L818.318 54.648C819.688 55.9907 821.884 55.9782 823.238 54.62L825.285 52.489 836.113 63.318ZM839.15 60.279 837.527 61.9 826.67 51.047 828.3 49.353C828.676 48.957 829.302 48.941 829.698 49.3172 829.71 49.3288 829.722 49.3408 829.734 49.353L839.222 58.844C839.566 59.2706 839.536 59.8873 839.153 60.279Z" fill="#00B050" fill-rule="nonzero" fill-opacity="1"/><path d="M842.7 14.757C836.294 8.3093 827.516 4.7831 818.43 5.007L818.471 7.007C835.761 6.6357 850.079 20.3513 850.45 37.6415 850.46 38.09 850.46 38.5386 850.45 38.987L852.45 39.028C852.675 29.9413 849.149 21.1627 842.7 14.757Z" fill="#00B050" fill-rule="nonzero" fill-opacity="1"/><path d="M818.422 15.471 818.483 17.471C829.999 17.1097 839.628 26.1524 839.989 37.6685 840.003 38.1042 840.003 38.5403 839.989 38.976L841.989 39.037C842.383 26.4157 832.471 15.8648 819.849 15.471 819.374 15.4561 818.898 15.4561 818.422 15.471Z" fill="#00B050" fill-rule="nonzero" fill-opacity="1"/><path d="M831.506 39.065C831.924 32.2411 826.731 26.3702 819.907 25.9521 819.403 25.9212 818.898 25.9212 818.394 25.952L818.511 27.952C824.233 27.5987 829.158 31.9507 829.511 37.6725 829.537 38.0986 829.537 38.5259 829.511 38.952Z" fill="#00B050" fill-rule="nonzero" fill-opacity="1"/></g></g></g></g></svg>